<?xml version="1.0" encoding="UTF-8" standalone="no"?>
<svg
   xmlns:dc="http://purl.org/dc/elements/1.1/"
   xmlns:cc="http://creativecommons.org/ns#"
   xmlns:rdf="http://www.w3.org/1999/02/22-rdf-syntax-ns#"
   xmlns:svg="http://www.w3.org/2000/svg"
   xmlns="http://www.w3.org/2000/svg"
   xmlns:sodipodi="http://sodipodi.sourceforge.net/DTD/sodipodi-0.dtd"
   xmlns:inkscape="http://www.inkscape.org/namespaces/inkscape"
   data-name="Ebene 1"
   viewBox="0 0 800 800"
   version="1.1"
   id="svg20"
   sodipodi:docname="logo.svg"
   inkscape:version="0.92.5 (2060ec1f9f, 2020-04-08)">
  <metadata
     id="metadata24">
    <rdf:RDF>
      <cc:Work
         rdf:about="">
        <dc:format>image/svg+xml</dc:format>
        <dc:type
           rdf:resource="http://purl.org/dc/dcmitype/StillImage" />
      </cc:Work>
    </rdf:RDF>
  </metadata>
  <sodipodi:namedview
     pagecolor="#ffffff"
     bordercolor="#666666"
     borderopacity="1"
     objecttolerance="10"
     gridtolerance="10"
     guidetolerance="10"
     inkscape:pageopacity="0"
     inkscape:pageshadow="2"
     inkscape:window-width="1024"
     inkscape:window-height="712"
     id="namedview22"
     showgrid="false"
     inkscape:zoom="0.295"
     inkscape:cx="400"
     inkscape:cy="400"
     inkscape:window-x="0"
     inkscape:window-y="28"
     inkscape:window-maximized="1"
     inkscape:current-layer="svg20" />
  <defs
     id="defs10">
    <clipPath
       id="d">
      <circle
         cx="400"
         cy="400"
         r="400"
         fill="none"
         id="circle2" />
    </clipPath>
    <linearGradient
       id="c"
       x1="483.98"
       x2="164.49"
       y1="333.99"
       y2="653.48"
       gradientUnits="userSpaceOnUse">
      <stop
         offset="0"
         id="stop5" />
      <stop
         stop-opacity="0"
         offset="1"
         id="stop7" />
    </linearGradient>
  </defs>
  <circle
     cx="400"
     cy="400"
     r="400"
     fill="#1c8adb"
     id="circle12"
     style="fill:#4b4453;fill-opacity:1" />
  <g
     clip-path="url(#d)"
     id="g18">
    <path
       d="m325.85 796.36 242.16-239.96a34.044 34.044 0 0 0 12.7 -26.55v-135.87a34.129 34.129 0 0 0 -22.7 -32.155v-38.478c0-77.916-70.814-141.08-158.17-141.08-48.328 0-91.585 19.339-120.6 49.806l-271.82 271.82c45.188 155.26 149.62 256.08 318.43 292.46z"
       fill="url(#c)"
       opacity=".42"
       id="path14" />
    <path
       d="m558.01 361.82v-38.477c0-77.916-70.814-141.08-158.17-141.08s-158.17 63.163-158.17 141.08v38.477a34.129 34.129 0 0 0 -22.7 32.155v135.87a34.119 34.119 0 0 0 32.462 34.078v3.8132a6.5957 6.5957 0 0 0 6.5957 6.5957h28.919a6.5957 6.5957 0 0 0 6.5956 -6.5957v-214.61a6.5957 6.5957 0 0 0 -6.5956 -6.5957h-16.104v-23.401c0-63.594 57.73-115.16 129-115.28 71.266 0.1224 129 51.687 129 115.28v23.401h-16.104a6.5957 6.5957 0 0 0 -6.5956 6.5957v214.61a6.5957 6.5957 0 0 0 6.5956 6.5957h28.919a6.5957 6.5957 0 0 0 6.5957 -6.5957v-3.8132a34.119 34.119 0 0 0 32.462 -34.078v-135.87a34.129 34.129 0 0 0 -22.7 -32.155z"
       fill="#fff"
       id="path16" />
  </g>
</svg>
